<?xml version="1.0" encoding="UTF-8" standalone="no"?>
<svg
   xmlns:dc="http://purl.org/dc/elements/1.1/"
   xmlns:cc="http://creativecommons.org/ns#"
   xmlns:rdf="http://www.w3.org/1999/02/22-rdf-syntax-ns#"
   xmlns:svg="http://www.w3.org/2000/svg"
   xmlns="http://www.w3.org/2000/svg"
   xmlns:sodipodi="http://sodipodi.sourceforge.net/DTD/sodipodi-0.dtd"
   xmlns:inkscape="http://www.inkscape.org/namespaces/inkscape"
   version="1.1"
   x="0px"
   y="0px"
   viewBox="0 0 348 483.00357"
   xml:space="preserve"
   id="svg16"
   sodipodi:docname="cv.svg"
   width="348"
   height="483.00357"
   inkscape:version="0.92.3 (2405546, 2018-03-11)"><metadata
     id="metadata22"><rdf:RDF><cc:Work
         rdf:about=""><dc:format>image/svg+xml</dc:format><dc:type
           rdf:resource="http://purl.org/dc/dcmitype/StillImage" /><dc:title></dc:title></cc:Work></rdf:RDF></metadata><defs
     id="defs20" /><sodipodi:namedview
     pagecolor="#ffffff"
     bordercolor="#666666"
     borderopacity="1"
     objecttolerance="10"
     gridtolerance="10"
     guidetolerance="10"
     inkscape:pageopacity="0"
     inkscape:pageshadow="2"
     inkscape:window-width="1920"
     inkscape:window-height="1011"
     id="namedview18"
     showgrid="false"
     fit-margin-top="0"
     fit-margin-left="0"
     fit-margin-right="0"
     fit-margin-bottom="0"
     inkscape:zoom="0.3776"
     inkscape:cx="174"
     inkscape:cy="180.5"
     inkscape:window-x="0"
     inkscape:window-y="0"
     inkscape:window-maximized="1"
     inkscape:current-layer="svg16" /><g
     id="g6"
     transform="translate(-76,-9.9964259)"><polygon
       points="311.9,30 404,120.9 311.9,120.9 "
       id="polygon2" /><path
       d="m 404,130.9 h -92.1 c -5.5,0 -10,-4.5 -10,-10 V 30 c 0,-4 2.4,-7.7 6.1,-9.2 3.7,-1.6 8,-0.7 10.9,2.1 l 92.1,90.9 c 2.9,2.8 3.8,7.2 2.2,10.9 -1.5,3.7 -5.1,6.2 -9.2,6.2 z m -82.1,-20 h 57.7 l -57.7,-57 z"
       id="path4"
       inkscape:connector-curvature="0"
       style="fill:#333333" /></g><g
     id="g12"
     transform="translate(-76,-9.9964259)"><path
       d="m 203.8,237.6 h 18.7 c 11,0 20,-9 20,-20 0,-11 -9,-20 -20,-20 h -18.7 c -35.4,0 -64.2,28.8 -64.2,64.2 v 29.5 c 0,35.4 28.8,64.2 64.2,64.2 h 18.7 c 11,0 20,-9 20,-20 0,-11 -9,-20 -20,-20 h -18.7 c -13.4,0 -24.2,-10.9 -24.2,-24.2 v -29.5 c -0.1,-13.3 10.8,-24.2 24.2,-24.2 z"
       id="path8"
       inkscape:connector-curvature="0"
       style="fill:#333333" /><path
       d="m 348.7,198.1 c -10.8,-2.3 -21.4,4.6 -23.7,15.4 L 307.2,296 291.6,213.5 c -2.1,-10.9 -12.5,-18 -23.4,-15.9 -10.9,2.1 -18,12.5 -15.9,23.4 L 272,325.6 c 3.2,16.8 17.3,28.7 34.4,28.9 0.2,0 0.3,0 0.5,0 16.9,0 31.1,-11.5 34.7,-28 L 364,222.1 c 2.4,-11.1 -4.5,-21.7 -15.3,-24 z"
       id="path10"
       inkscape:connector-curvature="0"
       style="fill:#333333" /></g><path
     d="m 341.9,95.703574 -55,-53.4 -37,-36.4999999 c -3.9,-3.9 -9.2,-5.89999997 -14.5,-5.79999997 -0.1,0 -0.1,0 -0.2,0 H 20 C 9,0.00357413 0,9.0035741 0,20.003574 V 463.00357 c 0,11 9,20 20,20 h 308 c 11,0 20,-9 20,-20 v -353 c 0,-5.4 -2.2,-10.599996 -6.1,-14.299996 z m -62.6,-4.8 H 256 v -23 l 3,3 z M 205,443.00357 c -91.1,0 -165,-73.9 -165,-165 V 40.003574 h 175.9 v 70.899996 c 0,11 9,20 20,20 H 308 v 312.1 z"
     id="path14"
     inkscape:connector-curvature="0"
     style="fill:#333333" /></svg>