<?xml version="1.0" encoding="UTF-8" standalone="no"?>
<svg
   xmlns:dc="http://purl.org/dc/elements/1.1/"
   xmlns:cc="http://creativecommons.org/ns#"
   xmlns:rdf="http://www.w3.org/1999/02/22-rdf-syntax-ns#"
   xmlns:svg="http://www.w3.org/2000/svg"
   xmlns="http://www.w3.org/2000/svg"
   xmlns:sodipodi="http://sodipodi.sourceforge.net/DTD/sodipodi-0.dtd"
   xmlns:inkscape="http://www.inkscape.org/namespaces/inkscape"
   width="21.888655"
   height="21.928139"
   viewBox="0 0 21.888655 21.928139"
   class="feather feather-phone"
   version="1.1"
   id="svg4"
   sodipodi:docname="phone.svg"
   style="fill:none;stroke:#333;stroke-width:2;stroke-linecap:round;stroke-linejoin:round"
   inkscape:version="0.92.3 (2405546, 2018-03-11)">
  <metadata
     id="metadata10">
    <rdf:RDF>
      <cc:Work
         rdf:about="">
        <dc:format>image/svg+xml</dc:format>
        <dc:type
           rdf:resource="http://purl.org/dc/dcmitype/StillImage" />
        <dc:title></dc:title>
      </cc:Work>
    </rdf:RDF>
  </metadata>
  <defs
     id="defs8" />
  <sodipodi:namedview
     pagecolor="#ffffff"
     bordercolor="#666666"
     borderopacity="1"
     objecttolerance="10"
     gridtolerance="10"
     guidetolerance="10"
     inkscape:pageopacity="0"
     inkscape:pageshadow="2"
     inkscape:window-width="640"
     inkscape:window-height="480"
     id="namedview6"
     showgrid="false"
     fit-margin-top="0"
     fit-margin-left="0"
     fit-margin-right="0"
     fit-margin-bottom="0"
     inkscape:zoom="9.8333333"
     inkscape:cx="10.888041"
     inkscape:cy="10.928043"
     inkscape:window-x="0"
     inkscape:window-y="0"
     inkscape:window-maximized="0"
     inkscape:current-layer="svg4" />
  <path
     d="m 20.888041,15.920097 v 3 a 2,2 0 0 1 -2.18,2 19.79,19.79 0 0 1 -8.63,-3.07 19.5,19.5 0 0 1 -5.9999995,-6 19.79,19.79 0 0 1 -3.07,-8.6700004 2,2 0 0 1 1.99,-2.18 h 3 a 2,2 0 0 1 2,1.72 12.84,12.84 0 0 0 0.7,2.81 2,2 0 0 1 -0.45,2.11 l -1.27,1.27 a 16,16 0 0 0 5.9999995,6.0000004 l 1.27,-1.27 a 2,2 0 0 1 2.11,-0.45 12.84,12.84 0 0 0 2.81,0.7 2,2 0 0 1 1.72,2.03 z"
     id="path2"
     inkscape:connector-curvature="0" />
</svg>
