<?xml version="1.0" encoding="UTF-8" standalone="no"?>
<svg
   xmlns:dc="http://purl.org/dc/elements/1.1/"
   xmlns:cc="http://creativecommons.org/ns#"
   xmlns:rdf="http://www.w3.org/1999/02/22-rdf-syntax-ns#"
   xmlns:svg="http://www.w3.org/2000/svg"
   xmlns="http://www.w3.org/2000/svg"
   xmlns:sodipodi="http://sodipodi.sourceforge.net/DTD/sodipodi-0.dtd"
   xmlns:inkscape="http://www.inkscape.org/namespaces/inkscape"
   version="1.1"
   id="Capa_1"
   x="0px"
   y="0px"
   viewBox="0 0 24.08 22.332001"
   xml:space="preserve"
   sodipodi:docname="skype.svg"
   width="24.08"
   height="22.332001"
   inkscape:version="0.92.3 (2405546, 2018-03-11)"><metadata
   id="metadata71"><rdf:RDF><cc:Work
       rdf:about=""><dc:format>image/svg+xml</dc:format><dc:type
         rdf:resource="http://purl.org/dc/dcmitype/StillImage" /><dc:title></dc:title></cc:Work></rdf:RDF></metadata><defs
   id="defs69" /><sodipodi:namedview
   pagecolor="#ffffff"
   bordercolor="#666666"
   borderopacity="1"
   objecttolerance="10"
   gridtolerance="10"
   guidetolerance="10"
   inkscape:pageopacity="0"
   inkscape:pageshadow="2"
   inkscape:window-width="640"
   inkscape:window-height="480"
   id="namedview67"
   showgrid="false"
   fit-margin-top="0"
   fit-margin-left="0"
   fit-margin-right="0"
   fit-margin-bottom="0"
   inkscape:zoom="9.8006645"
   inkscape:cx="12.04"
   inkscape:cy="11.166"
   inkscape:window-x="0"
   inkscape:window-y="0"
   inkscape:window-maximized="0"
   inkscape:current-layer="Capa_1" />
<g
   id="g34"
   transform="translate(0,-0.874)">
	<path
	fill="#333"
   d="m 23.029,13.494 c 0.34,0.481 0.599,1.003 0.78,1.575 0.18,0.57 0.271,1.16 0.271,1.771 0,0.875 -0.177,1.697 -0.527,2.467 -0.351,0.768 -0.834,1.445 -1.45,2.033 -0.616,0.582 -1.333,1.039 -2.157,1.371 -0.824,0.332 -1.691,0.495 -2.613,0.495 -1.313,0 -2.491,-0.31 -3.536,-0.929 -0.29,0.04 -0.582,0.069 -0.877,0.091 -0.296,0.02 -0.589,0.028 -0.882,0.028 -1.534,0 -2.974,-0.275 -4.321,-0.823 C 6.373,21.022 5.196,20.274 4.182,19.321 3.171,18.372 2.374,17.253 1.8,15.972 1.221,14.691 0.932,13.322 0.932,11.867 c 0,-0.282 0.014,-0.55 0.044,-0.798 C 1.003,10.821 1.04,10.568 1.078,10.315 0.358,9.316 0,8.243 0,7.092 0,6.236 0.177,5.427 0.528,4.666 0.878,3.906 1.358,3.245 1.974,2.684 2.59,2.122 3.311,1.68 4.13,1.356 4.951,1.032 5.822,0.874 6.744,0.874 c 0.664,0 1.287,0.078 1.879,0.237 0.592,0.161 1.146,0.385 1.657,0.678 0.289,-0.041 0.585,-0.07 0.877,-0.093 0.296,-0.018 0.592,-0.029 0.881,-0.029 1.539,0 2.984,0.268 4.335,0.801 1.348,0.529 2.528,1.262 3.542,2.192 1.014,0.934 1.813,2.015 2.393,3.245 0.578,1.232 0.867,2.554 0.867,3.962 10e-4,0.519 -0.047,1.062 -0.146,1.627 z m -5.696,3.202 c 0.474,-0.624 0.708,-1.357 0.708,-2.199 0,-0.663 -0.132,-1.22 -0.392,-1.672 -0.271,-0.45 -0.653,-0.827 -1.146,-1.128 -0.453,-0.292 -1.042,-0.551 -1.763,-0.783 -0.725,-0.182 -1.494,-0.36 -2.307,-0.542 L 11.542,10.169 C 11.303,10.118 11.113,10.075 10.97,10.036 10.811,9.997 10.664,9.954 10.524,9.903 10.392,9.856 10.252,9.801 10.112,9.741 9.84,9.627 9.612,9.472 9.431,9.29 9.291,9.133 9.221,8.922 9.221,8.66 c 0,-0.383 0.228,-0.725 0.681,-1.028 0.513,-0.283 1.14,-0.419 1.885,-0.41 0.861,0 1.466,0.127 1.807,0.382 0.412,0.302 0.735,0.674 0.966,1.113 0.201,0.322 0.405,0.562 0.616,0.72 0.201,0.154 0.48,0.237 0.831,0.248 0.395,0 0.722,-0.131 0.997,-0.395 0.269,-0.246 0.398,-0.523 0.391,-0.835 0,-0.361 -0.102,-0.716 -0.302,-1.058 C 16.895,7.076 16.562,6.734 16.103,6.371 15.871,6.215 15.616,6.072 15.341,5.941 15.065,5.809 14.755,5.693 14.418,5.595 14.065,5.499 13.694,5.425 13.303,5.375 12.911,5.326 12.483,5.303 12.009,5.303 10.815,5.303 9.808,5.449 8.988,5.741 8.107,6.045 7.44,6.463 6.988,7.005 6.536,7.521 6.31,8.141 6.31,8.865 c 0,0.762 0.219,1.382 0.651,1.86 0.435,0.517 1.024,0.908 1.769,1.173 0.708,0.283 1.613,0.531 2.723,0.745 0.415,0.098 0.778,0.181 1.099,0.244 0.316,0.062 0.603,0.133 0.854,0.21 0.473,0.129 0.857,0.345 1.15,0.652 0.313,0.266 0.47,0.608 0.47,1.03 0,0.583 -0.286,1.055 -0.851,1.415 -0.534,0.369 -1.256,0.551 -2.165,0.538 -0.728,0 -1.255,-0.084 -1.589,-0.254 C 10.006,16.289 9.7,16.049 9.499,15.763 9.244,15.437 9.04,15.075 8.876,14.684 8.733,14.313 8.54,14.033 8.288,13.844 8.053,13.653 7.778,13.558 7.455,13.558 c -0.412,0 -0.752,0.115 -1.021,0.341 -0.269,0.257 -0.398,0.558 -0.392,0.896 0,0.589 0.218,1.178 0.65,1.768 0.429,0.607 0.98,1.081 1.651,1.422 0.983,0.508 2.218,0.765 3.702,0.775 1.211,0 2.29,-0.18 3.229,-0.539 0.922,-0.409 1.61,-0.916 2.059,-1.525 z"
   id="path2"
   inkscape:connector-curvature="0" />
	<g
   id="g4">
	</g>
	<g
   id="g6">
	</g>
	<g
   id="g8">
	</g>
	<g
   id="g10">
	</g>
	<g
   id="g12">
	</g>
	<g
   id="g14">
	</g>
	<g
   id="g16">
	</g>
	<g
   id="g18">
	</g>
	<g
   id="g20">
	</g>
	<g
   id="g22">
	</g>
	<g
   id="g24">
	</g>
	<g
   id="g26">
	</g>
	<g
   id="g28">
	</g>
	<g
   id="g30">
	</g>
	<g
   id="g32">
	</g>
</g>
<g
   id="g36"
   transform="translate(0,-0.874)">
</g>
<g
   id="g38"
   transform="translate(0,-0.874)">
</g>
<g
   id="g40"
   transform="translate(0,-0.874)">
</g>
<g
   id="g42"
   transform="translate(0,-0.874)">
</g>
<g
   id="g44"
   transform="translate(0,-0.874)">
</g>
<g
   id="g46"
   transform="translate(0,-0.874)">
</g>
<g
   id="g48"
   transform="translate(0,-0.874)">
</g>
<g
   id="g50"
   transform="translate(0,-0.874)">
</g>
<g
   id="g52"
   transform="translate(0,-0.874)">
</g>
<g
   id="g54"
   transform="translate(0,-0.874)">
</g>
<g
   id="g56"
   transform="translate(0,-0.874)">
</g>
<g
   id="g58"
   transform="translate(0,-0.874)">
</g>
<g
   id="g60"
   transform="translate(0,-0.874)">
</g>
<g
   id="g62"
   transform="translate(0,-0.874)">
</g>
<g
   id="g64"
   transform="translate(0,-0.874)"
   >
</g>
</svg>